<svg xmlns="http://www.w3.org/2000/svg" xmlns:xlink="http://www.w3.org/1999/xlink" width="500" zoomAndPan="magnify" viewBox="0 0 375 374.999991" height="500" preserveAspectRatio="xMidYMid meet" version="1.0"><defs><clipPath id="6e3140364b"><path d="M 47.398438 211.773438 L 106.25 211.773438 L 106.25 262.5 L 47.398438 262.5 Z M 47.398438 211.773438 " clip-rule="nonzero"/></clipPath><clipPath id="980fd09b39"><path d="M 76.738281 211.773438 C 60.535156 211.773438 47.398438 223.128906 47.398438 237.136719 C 47.398438 251.144531 60.535156 262.5 76.738281 262.5 C 92.941406 262.5 106.078125 251.144531 106.078125 237.136719 C 106.078125 223.128906 92.941406 211.773438 76.738281 211.773438 Z M 76.738281 211.773438 " clip-rule="nonzero"/></clipPath><clipPath id="9e08fdf134"><path d="M 261.96875 203.820312 L 320.648438 203.820312 L 320.648438 262.5 L 261.96875 262.5 Z M 261.96875 203.820312 " clip-rule="nonzero"/></clipPath><clipPath id="0589972b18"><path d="M 291.308594 203.820312 C 275.101562 203.820312 261.96875 216.957031 261.96875 233.160156 C 261.96875 249.363281 275.101562 262.5 291.308594 262.5 C 307.511719 262.5 320.648438 249.363281 320.648438 233.160156 C 320.648438 216.957031 307.511719 203.820312 291.308594 203.820312 Z M 291.308594 203.820312 " clip-rule="nonzero"/></clipPath><clipPath id="b13e22f78d"><path d="M 192.988281 187.457031 L 238.714844 187.457031 L 238.714844 337.5 L 192.988281 337.5 Z M 192.988281 187.457031 " clip-rule="nonzero"/></clipPath><clipPath id="718fb4abb6"><path d="M 215.851562 337.5 L 192.988281 187.5 L 238.714844 187.5 Z M 215.851562 337.5 " clip-rule="nonzero"/></clipPath><clipPath id="feef6d8920"><path d="M 76.738281 115.078125 L 286.074219 115.078125 L 286.074219 169.816406 L 76.738281 169.816406 Z M 76.738281 115.078125 " clip-rule="nonzero"/></clipPath><clipPath id="5f9a8db5f7"><path d="M 181.398438 115.078125 L 286.058594 169.816406 L 76.738281 169.816406 Z M 181.398438 115.078125 " clip-rule="nonzero"/></clipPath><clipPath id="a9e8b220bf"><path d="M 124.074219 187.457031 L 169.800781 187.457031 L 169.800781 337.5 L 124.074219 337.5 Z M 124.074219 187.457031 " clip-rule="nonzero"/></clipPath><clipPath id="76c48dbf7b"><path d="M 146.9375 337.5 L 124.074219 187.5 L 169.800781 187.5 Z M 146.9375 337.5 " clip-rule="nonzero"/></clipPath><clipPath id="0cf4f63c89"><path d="M 161.242188 74.769531 L 201.550781 74.769531 L 201.550781 115.078125 L 161.242188 115.078125 Z M 161.242188 74.769531 " clip-rule="nonzero"/></clipPath><clipPath id="ab847724e5"><path d="M 181.398438 74.769531 C 170.265625 74.769531 161.242188 83.792969 161.242188 94.921875 C 161.242188 106.054688 170.265625 115.078125 181.398438 115.078125 C 192.527344 115.078125 201.550781 106.054688 201.550781 94.921875 C 201.550781 83.792969 192.527344 74.769531 181.398438 74.769531 Z M 181.398438 74.769531 " clip-rule="nonzero"/></clipPath><clipPath id="b6b51a5aaa"><path d="M 135.980469 316.113281 L 226.816406 316.113281 L 226.816406 358.886719 L 135.980469 358.886719 Z M 135.980469 316.113281 " clip-rule="nonzero"/></clipPath><clipPath id="0f7017d3c0"><path d="M 246.664062 199.5 L 337.5 199.5 L 337.5 233.160156 L 246.664062 233.160156 Z M 246.664062 199.5 " clip-rule="nonzero"/></clipPath><clipPath id="9321663d14"><path d="M 31.320312 199.5 L 122.15625 199.5 L 122.15625 233.160156 L 31.320312 233.160156 Z M 31.320312 199.5 " clip-rule="nonzero"/></clipPath></defs><rect x="-37.5" width="450" fill="#ffffff" y="-37.499999" height="449.999989" fill-opacity="1"/><rect x="-37.5" width="450" fill="#ffffff" y="-37.499999" height="449.999989" fill-opacity="1"/><g clip-path="url(#6e3140364b)"><g clip-path="url(#980fd09b39)"><path fill="#cba864" d="M 47.398438 211.773438 L 106.050781 211.773438 L 106.050781 262.5 L 47.398438 262.5 Z M 47.398438 211.773438 " fill-opacity="1" fill-rule="nonzero"/></g></g><g clip-path="url(#9e08fdf134)"><g clip-path="url(#0589972b18)"><path fill="#cba864" d="M 261.96875 203.820312 L 320.648438 203.820312 L 320.648438 262.5 L 261.96875 262.5 Z M 261.96875 203.820312 " fill-opacity="1" fill-rule="nonzero"/></g></g><g clip-path="url(#b13e22f78d)"><g clip-path="url(#718fb4abb6)"><path fill="#cba864" d="M 238.714844 337.5 L 192.988281 337.5 L 192.988281 187.457031 L 238.714844 187.457031 Z M 238.714844 337.5 " fill-opacity="1" fill-rule="nonzero"/></g></g><g clip-path="url(#feef6d8920)"><g clip-path="url(#5f9a8db5f7)"><path fill="#cba864" d="M 76.738281 115.078125 L 286.074219 115.078125 L 286.074219 169.816406 L 76.738281 169.816406 Z M 76.738281 115.078125 " fill-opacity="1" fill-rule="nonzero"/></g></g><g clip-path="url(#a9e8b220bf)"><g clip-path="url(#76c48dbf7b)"><path fill="#cba864" d="M 169.800781 337.5 L 124.074219 337.5 L 124.074219 187.457031 L 169.800781 187.457031 Z M 169.800781 337.5 " fill-opacity="1" fill-rule="nonzero"/></g></g><g clip-path="url(#0cf4f63c89)"><g clip-path="url(#ab847724e5)"><path fill="#cba864" d="M 161.242188 74.769531 L 201.550781 74.769531 L 201.550781 115.078125 L 161.242188 115.078125 Z M 161.242188 74.769531 " fill-opacity="1" fill-rule="nonzero"/></g></g><g clip-path="url(#b6b51a5aaa)"><path fill="#24283e" d="M 135.980469 316.113281 L 226.875 316.113281 L 226.875 358.886719 L 135.980469 358.886719 Z M 135.980469 316.113281 " fill-opacity="1" fill-rule="nonzero"/></g><g clip-path="url(#0f7017d3c0)"><path fill="#24283e" d="M 246.664062 199.5 L 337.519531 199.5 L 337.519531 233.160156 L 246.664062 233.160156 Z M 246.664062 199.5 " fill-opacity="1" fill-rule="nonzero"/></g><g clip-path="url(#9321663d14)"><path fill="#24283e" d="M 31.320312 199.5 L 122.175781 199.5 L 122.175781 233.160156 L 31.320312 233.160156 Z M 31.320312 199.5 " fill-opacity="1" fill-rule="nonzero"/></g></svg>