<svg xmlns="http://www.w3.org/2000/svg" xmlns:xlink="http://www.w3.org/1999/xlink" width="500" zoomAndPan="magnify" viewBox="0 0 375 374.999991" height="500" preserveAspectRatio="xMidYMid meet" version="1.0"><defs><g/><clipPath id="c3888e9b2c"><path d="M 337 17 L 375 17 L 375 71 L 337 71 Z M 337 17 " clip-rule="nonzero"/></clipPath><clipPath id="275543a777"><path d="M 364.785156 17.5625 L 376.859375 24.851562 L 349.5625 70.085938 L 337.484375 62.796875 Z M 364.785156 17.5625 " clip-rule="nonzero"/></clipPath><clipPath id="ad29f0d1df"><path d="M 364.785156 17.5625 L 376.859375 24.851562 L 349.574219 70.066406 L 337.496094 62.777344 Z M 364.785156 17.5625 " clip-rule="nonzero"/></clipPath><clipPath id="22ea4498ec"><path d="M 324 10 L 351 10 L 351 38 L 324 38 Z M 324 10 " clip-rule="nonzero"/></clipPath><clipPath id="45edafef3d"><path d="M 334.328125 10.808594 L 350.78125 20.738281 L 340.65625 37.511719 L 324.203125 27.582031 Z M 334.328125 10.808594 " clip-rule="nonzero"/></clipPath><clipPath id="42f66fe154"><path d="M 334.328125 10.808594 L 350.78125 20.738281 L 340.664062 37.503906 L 324.210938 27.570312 Z M 334.328125 10.808594 " clip-rule="nonzero"/></clipPath><clipPath id="0b98fc711b"><path d="M 324 51 L 350 51 L 350 77 L 324 77 Z M 324 51 " clip-rule="nonzero"/></clipPath><clipPath id="61847dcfd9"><path d="M 333.25 51.636719 L 349.746094 61.589844 L 340.707031 76.566406 L 324.210938 66.609375 Z M 333.25 51.636719 " clip-rule="nonzero"/></clipPath><clipPath id="bb24652f2d"><path d="M 333.25 51.636719 L 349.703125 61.566406 L 340.664062 76.542969 L 324.210938 66.609375 Z M 333.25 51.636719 " clip-rule="nonzero"/></clipPath></defs><g fill="#3d3b3a" fill-opacity="1"><g transform="translate(38.988785, 250.604442)"><g><path d="M 1.546875 -11.734375 L 6.21875 -11.734375 C 7.695312 -11.734375 8.835938 -11.382812 9.640625 -10.6875 C 10.453125 -9.988281 10.859375 -9.003906 10.859375 -7.734375 C 10.859375 -6.398438 10.453125 -5.363281 9.640625 -4.625 C 8.835938 -3.894531 7.695312 -3.53125 6.21875 -3.53125 L 3.515625 -3.53125 L 3.515625 0 L 1.546875 0 Z M 3.515625 -9.953125 L 3.515625 -5.3125 L 6.140625 -5.3125 C 8.023438 -5.3125 8.96875 -6.097656 8.96875 -7.671875 C 8.96875 -9.191406 8.023438 -9.953125 6.140625 -9.953125 Z M 3.515625 -9.953125 "/></g></g></g><g fill="#3d3b3a" fill-opacity="1"><g transform="translate(56.985399, 250.604442)"><g><path d="M 9.125 -2.65625 L 3.203125 -2.65625 L 2.078125 0 L 0.015625 0 L 5.203125 -11.734375 L 7.21875 -11.734375 L 12.359375 0 L 10.25 0 Z M 8.359375 -4.40625 L 6.15625 -9.625 L 3.9375 -4.40625 Z M 8.359375 -4.40625 "/></g></g></g><g fill="#3d3b3a" fill-opacity="1"><g transform="translate(76.072159, 250.604442)"><g><path d="M 9.5625 -9.953125 L 5.828125 -9.953125 L 5.828125 0 L 3.859375 0 L 3.859375 -9.953125 L 0.15625 -9.953125 L 0.15625 -11.734375 L 9.5625 -11.734375 Z M 9.5625 -9.953125 "/></g></g></g><g fill="#3d3b3a" fill-opacity="1"><g transform="translate(92.492258, 250.604442)"><g><path d="M 8.984375 0 L 6.84375 -3.546875 C 6.726562 -3.535156 6.546875 -3.53125 6.296875 -3.53125 L 3.515625 -3.53125 L 3.515625 0 L 1.546875 0 L 1.546875 -11.734375 L 6.296875 -11.734375 C 7.796875 -11.734375 8.957031 -11.382812 9.78125 -10.6875 C 10.613281 -9.988281 11.03125 -9.003906 11.03125 -7.734375 C 11.03125 -6.796875 10.820312 -6 10.40625 -5.34375 C 9.988281 -4.695312 9.382812 -4.222656 8.59375 -3.921875 L 11.234375 0 Z M 3.515625 -5.3125 L 6.296875 -5.3125 C 8.203125 -5.3125 9.15625 -6.097656 9.15625 -7.671875 C 9.15625 -9.191406 8.203125 -9.953125 6.296875 -9.953125 L 3.515625 -9.953125 Z M 3.515625 -5.3125 "/></g></g></g><g fill="#3d3b3a" fill-opacity="1"><g transform="translate(111.327453, 250.604442)"><g><path d="M 3.515625 0 L 1.546875 0 L 1.546875 -11.734375 L 3.515625 -11.734375 Z M 3.515625 0 "/></g></g></g><g fill="#3d3b3a" fill-opacity="1"><g transform="translate(123.10187, 250.604442)"><g><path d="M 6.734375 -11.78125 C 7.566406 -11.78125 8.375 -11.617188 9.15625 -11.296875 C 9.945312 -10.984375 10.628906 -10.539062 11.203125 -9.96875 L 10.046875 -8.53125 C 9.617188 -8.988281 9.113281 -9.351562 8.53125 -9.625 C 7.945312 -9.894531 7.359375 -10.03125 6.765625 -10.03125 C 5.597656 -10.03125 4.609375 -9.628906 3.796875 -8.828125 C 2.984375 -8.023438 2.578125 -7.050781 2.578125 -5.90625 C 2.578125 -4.738281 2.984375 -3.753906 3.796875 -2.953125 C 4.609375 -2.160156 5.597656 -1.765625 6.765625 -1.765625 C 7.984375 -1.765625 9.078125 -2.226562 10.046875 -3.15625 L 11.21875 -1.84375 C 10.613281 -1.25 9.90625 -0.78125 9.09375 -0.4375 C 8.289062 -0.09375 7.484375 0.078125 6.671875 0.078125 C 4.953125 0.078125 3.503906 -0.492188 2.328125 -1.640625 C 1.148438 -2.785156 0.5625 -4.203125 0.5625 -5.890625 C 0.5625 -7.546875 1.15625 -8.941406 2.34375 -10.078125 C 3.539062 -11.210938 5.003906 -11.78125 6.734375 -11.78125 Z M 6.734375 -11.78125 "/></g></g></g><g fill="#3d3b3a" fill-opacity="1"><g transform="translate(141.501002, 250.604442)"><g><path d="M 5.15625 -14.65625 L 3.125 -13.015625 L 1.40625 -13.015625 L 3.1875 -15.484375 Z M 3.515625 0 L 1.546875 0 L 1.546875 -11.734375 L 3.515625 -11.734375 Z M 3.515625 0 "/></g></g></g><g fill="#3d3b3a" fill-opacity="1"><g transform="translate(153.275413, 250.604442)"><g><path d="M 9.125 -2.65625 L 3.203125 -2.65625 L 2.078125 0 L 0.015625 0 L 5.203125 -11.734375 L 7.21875 -11.734375 L 12.359375 0 L 10.25 0 Z M 8.359375 -4.40625 L 6.15625 -9.625 L 3.9375 -4.40625 Z M 8.359375 -4.40625 "/></g></g></g><g fill="#3d3b3a" fill-opacity="1"><g transform="translate(172.362169, 250.604442)"><g/></g></g><g fill="#3d3b3a" fill-opacity="1"><g transform="translate(183.398646, 250.604442)"><g><path d="M 9.40625 -9.953125 L 3.515625 -9.953125 L 3.515625 -6.578125 L 8.859375 -6.578125 L 8.859375 -4.8125 L 3.515625 -4.8125 L 3.515625 0 L 1.546875 0 L 1.546875 -11.734375 L 9.421875 -11.734375 Z M 9.40625 -9.953125 "/></g></g></g><g fill="#3d3b3a" fill-opacity="1"><g transform="translate(199.751657, 250.604442)"><g><path d="M 9.921875 -9.953125 L 3.515625 -9.953125 L 3.515625 -6.796875 L 9.25 -6.796875 L 9.25 -5.015625 L 3.515625 -5.015625 L 3.515625 -1.78125 L 10.125 -1.78125 L 10.125 0 L 1.546875 0 L 1.546875 -11.734375 L 9.921875 -11.734375 Z M 9.921875 -9.953125 "/></g></g></g><g fill="#3d3b3a" fill-opacity="1"><g transform="translate(217.463152, 250.604442)"><g><path d="M 8.984375 0 L 6.84375 -3.546875 C 6.726562 -3.535156 6.546875 -3.53125 6.296875 -3.53125 L 3.515625 -3.53125 L 3.515625 0 L 1.546875 0 L 1.546875 -11.734375 L 6.296875 -11.734375 C 7.796875 -11.734375 8.957031 -11.382812 9.78125 -10.6875 C 10.613281 -9.988281 11.03125 -9.003906 11.03125 -7.734375 C 11.03125 -6.796875 10.820312 -6 10.40625 -5.34375 C 9.988281 -4.695312 9.382812 -4.222656 8.59375 -3.921875 L 11.234375 0 Z M 3.515625 -5.3125 L 6.296875 -5.3125 C 8.203125 -5.3125 9.15625 -6.097656 9.15625 -7.671875 C 9.15625 -9.191406 8.203125 -9.953125 6.296875 -9.953125 L 3.515625 -9.953125 Z M 3.515625 -5.3125 "/></g></g></g><g fill="#3d3b3a" fill-opacity="1"><g transform="translate(236.298342, 250.604442)"><g><path d="M 11.71875 0 L 9.78125 0 L 3.515625 -8.421875 L 3.515625 0 L 1.546875 0 L 1.546875 -11.734375 L 3.484375 -11.734375 L 9.78125 -3.296875 L 9.78125 -11.734375 L 11.71875 -11.734375 Z M 11.71875 0 "/></g></g></g><g fill="#3d3b3a" fill-opacity="1"><g transform="translate(256.290763, 250.604442)"><g><path d="M 9.125 -2.65625 L 3.203125 -2.65625 L 2.078125 0 L 0.015625 0 L 5.203125 -11.734375 L 7.21875 -11.734375 L 12.359375 0 L 10.25 0 Z M 8.359375 -4.40625 L 6.15625 -9.625 L 3.9375 -4.40625 Z M 8.359375 -4.40625 "/></g></g></g><g fill="#3d3b3a" fill-opacity="1"><g transform="translate(275.377519, 250.604442)"><g><path d="M 11.71875 0 L 9.78125 0 L 3.515625 -8.421875 L 3.515625 0 L 1.546875 0 L 1.546875 -11.734375 L 3.484375 -11.734375 L 9.78125 -3.296875 L 9.78125 -11.734375 L 11.71875 -11.734375 Z M 11.71875 0 "/></g></g></g><g fill="#3d3b3a" fill-opacity="1"><g transform="translate(295.369939, 250.604442)"><g><path d="M 1.546875 -11.734375 L 6.359375 -11.734375 C 8.109375 -11.734375 9.554688 -11.179688 10.703125 -10.078125 C 11.847656 -8.972656 12.421875 -7.566406 12.421875 -5.859375 C 12.421875 -4.160156 11.84375 -2.757812 10.6875 -1.65625 C 9.539062 -0.550781 8.078125 0 6.296875 0 L 1.546875 0 Z M 3.515625 -9.953125 L 3.515625 -1.78125 L 6.40625 -1.78125 C 7.550781 -1.78125 8.503906 -2.160156 9.265625 -2.921875 C 10.035156 -3.691406 10.421875 -4.664062 10.421875 -5.84375 C 10.421875 -7.03125 10.023438 -8.007812 9.234375 -8.78125 C 8.453125 -9.5625 7.484375 -9.953125 6.328125 -9.953125 Z M 3.515625 -9.953125 "/></g></g></g><g fill="#3d3b3a" fill-opacity="1"><g transform="translate(315.077245, 250.604442)"><g><path d="M 9.921875 -9.953125 L 3.515625 -9.953125 L 3.515625 -6.796875 L 9.25 -6.796875 L 9.25 -5.015625 L 3.515625 -5.015625 L 3.515625 -1.78125 L 10.125 -1.78125 L 10.125 0 L 1.546875 0 L 1.546875 -11.734375 L 9.921875 -11.734375 Z M 9.921875 -9.953125 "/></g></g></g><g fill="#3d3b3a" fill-opacity="1"><g transform="translate(332.788753, 250.604442)"><g><path d="M 5.40625 -11.8125 C 6.914062 -11.8125 8.28125 -11.410156 9.5 -10.609375 L 8.6875 -8.875 C 7.488281 -9.59375 6.34375 -9.953125 5.25 -9.953125 C 4.65625 -9.953125 4.1875 -9.847656 3.84375 -9.640625 C 3.507812 -9.429688 3.34375 -9.128906 3.34375 -8.734375 C 3.34375 -8.335938 3.5 -8.003906 3.8125 -7.734375 C 4.125 -7.460938 4.515625 -7.257812 4.984375 -7.125 C 5.453125 -7 5.957031 -6.835938 6.5 -6.640625 C 7.050781 -6.453125 7.5625 -6.25 8.03125 -6.03125 C 8.5 -5.8125 8.882812 -5.46875 9.1875 -5 C 9.5 -4.539062 9.65625 -3.976562 9.65625 -3.3125 C 9.65625 -2.289062 9.242188 -1.472656 8.421875 -0.859375 C 7.597656 -0.242188 6.535156 0.0625 5.234375 0.0625 C 4.335938 0.0625 3.46875 -0.101562 2.625 -0.4375 C 1.789062 -0.769531 1.0625 -1.222656 0.4375 -1.796875 L 1.296875 -3.5 C 1.878906 -2.957031 2.523438 -2.535156 3.234375 -2.234375 C 3.953125 -1.941406 4.628906 -1.796875 5.265625 -1.796875 C 5.953125 -1.796875 6.488281 -1.921875 6.875 -2.171875 C 7.257812 -2.421875 7.453125 -2.769531 7.453125 -3.21875 C 7.453125 -3.625 7.296875 -3.960938 6.984375 -4.234375 C 6.671875 -4.503906 6.28125 -4.703125 5.8125 -4.828125 C 5.34375 -4.960938 4.832031 -5.117188 4.28125 -5.296875 C 3.738281 -5.484375 3.234375 -5.679688 2.765625 -5.890625 C 2.296875 -6.097656 1.90625 -6.429688 1.59375 -6.890625 C 1.28125 -7.347656 1.125 -7.898438 1.125 -8.546875 C 1.125 -9.546875 1.515625 -10.335938 2.296875 -10.921875 C 3.078125 -11.515625 4.113281 -11.8125 5.40625 -11.8125 Z M 5.40625 -11.8125 "/></g></g></g><g fill="#3d3b3a" fill-opacity="1"><g transform="translate(146.407132, 157.726377)"><g><path d="M 14.953125 -6.828125 C 14.953125 -5.117188 15.191406 -3.875 15.671875 -3.09375 C 16.148438 -2.3125 17.070312 -1.757812 18.4375 -1.4375 C 19.800781 -1.125 21.984375 -0.96875 24.984375 -0.96875 C 25.148438 -0.96875 25.234375 -0.804688 25.234375 -0.484375 C 25.234375 -0.160156 25.148438 0 24.984375 0 C 22.796875 0 21.082031 -0.0234375 19.84375 -0.078125 L 12.859375 -0.15625 L 7.546875 -0.078125 C 6.585938 -0.0234375 5.25 0 3.53125 0 C 3.425781 0 3.375 -0.160156 3.375 -0.484375 C 3.375 -0.804688 3.425781 -0.96875 3.53125 -0.96875 C 5.625 -0.96875 7.164062 -1.097656 8.15625 -1.359375 C 9.144531 -1.628906 9.8125 -2.148438 10.15625 -2.921875 C 10.507812 -3.703125 10.6875 -4.898438 10.6875 -6.515625 L 10.6875 -43.71875 C 10.6875 -45.320312 10.507812 -46.5 10.15625 -47.25 C 9.8125 -48 9.144531 -48.519531 8.15625 -48.8125 C 7.164062 -49.113281 5.625 -49.265625 3.53125 -49.265625 C 3.425781 -49.265625 3.375 -49.421875 3.375 -49.734375 C 3.375 -50.054688 3.425781 -50.21875 3.53125 -50.21875 L 7.46875 -50.140625 C 9.71875 -50.035156 11.488281 -49.984375 12.78125 -49.984375 C 14.0625 -49.984375 15.535156 -50.0625 17.203125 -50.21875 C 21.378906 -50.382812 23.65625 -50.46875 24.03125 -50.46875 C 28.738281 -50.46875 32.566406 -49.378906 35.515625 -47.203125 C 38.460938 -45.035156 39.9375 -41.726562 39.9375 -37.28125 C 39.9375 -33.695312 39.050781 -30.6875 37.28125 -28.25 C 35.519531 -25.8125 33.285156 -24 30.578125 -22.8125 C 27.867188 -21.632812 25.066406 -21.046875 22.171875 -21.046875 C 20.566406 -21.046875 19.253906 -21.179688 18.234375 -21.453125 C 18.078125 -21.453125 18 -21.585938 18 -21.859375 C 18 -22.015625 18.035156 -22.171875 18.109375 -22.328125 C 18.191406 -22.492188 18.289062 -22.550781 18.40625 -22.5 C 19.257812 -22.28125 20.222656 -22.171875 21.296875 -22.171875 C 25.097656 -22.171875 28.320312 -23.320312 30.96875 -25.625 C 33.625 -27.9375 34.953125 -31.285156 34.953125 -35.671875 C 34.953125 -38.515625 34.390625 -40.96875 33.265625 -43.03125 C 32.140625 -45.09375 30.597656 -46.671875 28.640625 -47.765625 C 26.691406 -48.867188 24.535156 -49.421875 22.171875 -49.421875 C 19.984375 -49.421875 18.429688 -49.3125 17.515625 -49.09375 C 16.609375 -48.882812 15.953125 -48.390625 15.546875 -47.609375 C 15.148438 -46.835938 14.953125 -45.488281 14.953125 -43.5625 Z M 14.953125 -6.828125 "/></g></g></g><g fill="#3d3b3a" fill-opacity="1"><g transform="translate(180.355598, 205.790703)"><g><path d="M 36.234375 -39.78125 C 36.234375 -39.613281 36.085938 -39.53125 35.796875 -39.53125 C 35.503906 -39.53125 35.359375 -39.613281 35.359375 -39.78125 C 35.359375 -42.507812 34.632812 -44.675781 33.1875 -46.28125 C 31.738281 -47.894531 29.835938 -48.703125 27.484375 -48.703125 L 21.9375 -48.703125 C 19.957031 -48.703125 18.484375 -48.566406 17.515625 -48.296875 C 16.554688 -48.023438 15.890625 -47.539062 15.515625 -46.84375 C 15.140625 -46.15625 14.953125 -45.085938 14.953125 -43.640625 L 14.953125 -25.953125 L 23.703125 -25.953125 C 26.429688 -25.953125 28.359375 -26.367188 29.484375 -27.203125 C 30.609375 -28.035156 31.171875 -29.46875 31.171875 -31.5 C 31.171875 -31.601562 31.332031 -31.65625 31.65625 -31.65625 C 31.976562 -31.65625 32.140625 -31.601562 32.140625 -31.5 L 32.0625 -25.15625 C 32.0625 -23.601562 32.085938 -22.453125 32.140625 -21.703125 L 32.21875 -17.921875 C 32.21875 -17.816406 32.054688 -17.765625 31.734375 -17.765625 C 31.421875 -17.765625 31.265625 -17.816406 31.265625 -17.921875 C 31.265625 -20.328125 30.6875 -22.007812 29.53125 -22.96875 C 28.375 -23.9375 26.328125 -24.421875 23.390625 -24.421875 L 14.953125 -24.421875 L 14.953125 -6.828125 C 14.953125 -5.117188 15.191406 -3.875 15.671875 -3.09375 C 16.148438 -2.3125 17.070312 -1.757812 18.4375 -1.4375 C 19.800781 -1.125 21.984375 -0.96875 24.984375 -0.96875 C 25.148438 -0.96875 25.234375 -0.804688 25.234375 -0.484375 C 25.234375 -0.160156 25.148438 0 24.984375 0 C 22.796875 0 21.082031 -0.0234375 19.84375 -0.078125 L 12.859375 -0.15625 L 7.546875 -0.078125 C 6.585938 -0.0234375 5.25 0 3.53125 0 C 3.425781 0 3.375 -0.160156 3.375 -0.484375 C 3.375 -0.804688 3.425781 -0.96875 3.53125 -0.96875 C 5.625 -0.96875 7.164062 -1.097656 8.15625 -1.359375 C 9.144531 -1.628906 9.8125 -2.148438 10.15625 -2.921875 C 10.507812 -3.703125 10.6875 -4.898438 10.6875 -6.515625 L 10.6875 -43.71875 C 10.6875 -45.320312 10.507812 -46.5 10.15625 -47.25 C 9.8125 -48 9.144531 -48.519531 8.15625 -48.8125 C 7.164062 -49.113281 5.625 -49.265625 3.53125 -49.265625 C 3.425781 -49.265625 3.375 -49.421875 3.375 -49.734375 C 3.375 -50.054688 3.425781 -50.21875 3.53125 -50.21875 L 35.359375 -50.21875 C 35.835938 -50.21875 36.078125 -49.976562 36.078125 -49.5 Z M 36.234375 -39.78125 "/></g></g></g><g clip-path="url(#c3888e9b2c)"><g clip-path="url(#275543a777)"><g clip-path="url(#ad29f0d1df)"><path fill="#ffffff" d="M 364.785156 17.5625 L 376.859375 24.851562 L 349.5625 70.085938 L 337.484375 62.796875 Z M 364.785156 17.5625 " fill-opacity="1" fill-rule="nonzero"/></g></g></g><g clip-path="url(#22ea4498ec)"><g clip-path="url(#45edafef3d)"><g clip-path="url(#42f66fe154)"><path fill="#ffffff" d="M 334.328125 10.808594 L 350.78125 20.738281 L 340.65625 37.511719 L 324.203125 27.582031 Z M 334.328125 10.808594 " fill-opacity="1" fill-rule="nonzero"/></g></g></g><g clip-path="url(#0b98fc711b)"><g clip-path="url(#61847dcfd9)"><g clip-path="url(#bb24652f2d)"><path fill="#ffffff" d="M 333.25 51.636719 L 349.6875 61.554688 L 340.648438 76.53125 L 324.210938 66.609375 Z M 333.25 51.636719 " fill-opacity="1" fill-rule="nonzero"/></g></g></g><path stroke-linecap="butt" transform="matrix(0.499403, -0.55955, 0.55955, 0.499403, 157.640941, 179.501868)" fill="none" stroke-linejoin="miter" d="M 0.000134498 0.997605 L 85.074354 1.001097 " stroke="#3d3b3a" stroke-width="2" stroke-opacity="1" stroke-miterlimit="4"/><g fill="#3d3b3a" fill-opacity="1"><g transform="translate(148.346554, 279.375854)"><g><path d="M 7.203125 -0.15625 C 7.234375 -0.15625 7.25 -0.128906 7.25 -0.078125 C 7.25 -0.0234375 7.234375 0 7.203125 0 C 7.066406 0 6.859375 -0.0078125 6.578125 -0.03125 C 6.253906 -0.0390625 6 -0.046875 5.8125 -0.046875 C 5.625 -0.046875 5.378906 -0.0390625 5.078125 -0.03125 C 4.804688 -0.0078125 4.609375 0 4.484375 0 C 4.441406 0 4.421875 -0.0234375 4.421875 -0.078125 C 4.421875 -0.128906 4.441406 -0.15625 4.484375 -0.15625 C 4.734375 -0.15625 4.910156 -0.191406 5.015625 -0.265625 C 5.128906 -0.335938 5.1875 -0.46875 5.1875 -0.65625 C 5.1875 -0.789062 5.164062 -0.925781 5.125 -1.0625 L 4.765625 -2.875 L 2.328125 -2.875 L 1.640625 -1.625 C 1.421875 -1.226562 1.3125 -0.921875 1.3125 -0.703125 C 1.3125 -0.515625 1.390625 -0.375 1.546875 -0.28125 C 1.703125 -0.195312 1.945312 -0.15625 2.28125 -0.15625 C 2.3125 -0.15625 2.320312 -0.128906 2.3125 -0.078125 C 2.3125 -0.0234375 2.296875 0 2.265625 0 C 2.148438 0 1.9375 -0.0078125 1.625 -0.03125 C 1.238281 -0.0390625 0.941406 -0.046875 0.734375 -0.046875 C 0.554688 -0.046875 0.347656 -0.0390625 0.109375 -0.03125 C -0.117188 -0.0078125 -0.296875 0 -0.421875 0 C -0.460938 0 -0.484375 -0.0234375 -0.484375 -0.078125 C -0.484375 -0.128906 -0.460938 -0.15625 -0.421875 -0.15625 C -0.191406 -0.15625 0.078125 -0.285156 0.390625 -0.546875 C 0.710938 -0.816406 1.015625 -1.203125 1.296875 -1.703125 L 4.8125 -7.96875 C 4.820312 -8 4.851562 -8.015625 4.90625 -8.015625 C 4.925781 -8.015625 4.945312 -8.007812 4.96875 -8 C 5 -7.988281 5.019531 -7.976562 5.03125 -7.96875 L 6.40625 -1.0625 C 6.457031 -0.78125 6.5 -0.582031 6.53125 -0.46875 C 6.570312 -0.363281 6.640625 -0.285156 6.734375 -0.234375 C 6.835938 -0.179688 6.992188 -0.15625 7.203125 -0.15625 Z M 2.515625 -3.234375 L 4.6875 -3.234375 L 4.109375 -6.125 Z M 2.515625 -3.234375 "/></g></g></g><g fill="#3d3b3a" fill-opacity="1"><g transform="translate(159.725401, 279.375854)"><g><path d="M 4.5625 -1.125 C 4.539062 -1 4.53125 -0.894531 4.53125 -0.8125 C 4.53125 -0.625 4.59375 -0.53125 4.71875 -0.53125 C 4.800781 -0.53125 4.894531 -0.566406 5 -0.640625 C 5.101562 -0.710938 5.234375 -0.820312 5.390625 -0.96875 C 5.398438 -0.988281 5.414062 -1 5.4375 -1 C 5.457031 -1 5.472656 -0.984375 5.484375 -0.953125 C 5.503906 -0.921875 5.503906 -0.894531 5.484375 -0.875 C 5.203125 -0.53125 4.953125 -0.28125 4.734375 -0.125 C 4.515625 0.03125 4.285156 0.109375 4.046875 0.109375 C 3.648438 0.109375 3.453125 -0.128906 3.453125 -0.609375 C 3.453125 -0.773438 3.46875 -0.945312 3.5 -1.125 L 3.65625 -1.984375 C 3.3125 -1.304688 2.941406 -0.78125 2.546875 -0.40625 C 2.160156 -0.03125 1.765625 0.15625 1.359375 0.15625 C 1.035156 0.15625 0.765625 0.0546875 0.546875 -0.140625 C 0.335938 -0.347656 0.234375 -0.660156 0.234375 -1.078125 C 0.234375 -1.242188 0.253906 -1.410156 0.296875 -1.578125 C 0.398438 -2.171875 0.632812 -2.726562 1 -3.25 C 1.375 -3.78125 1.800781 -4.207031 2.28125 -4.53125 C 2.769531 -4.851562 3.242188 -5.015625 3.703125 -5.015625 C 3.890625 -5.015625 4.054688 -4.988281 4.203125 -4.9375 L 4.65625 -7.40625 C 4.675781 -7.570312 4.6875 -7.710938 4.6875 -7.828125 C 4.6875 -8.066406 4.609375 -8.1875 4.453125 -8.1875 C 4.347656 -8.1875 4.171875 -8.128906 3.921875 -8.015625 L 3.90625 -8.015625 C 3.863281 -8.015625 3.835938 -8.035156 3.828125 -8.078125 C 3.828125 -8.128906 3.84375 -8.15625 3.875 -8.15625 L 5.828125 -9.125 L 5.84375 -9.125 C 5.882812 -9.125 5.914062 -9.109375 5.9375 -9.078125 C 5.96875 -9.054688 5.976562 -9.035156 5.96875 -9.015625 Z M 1.984375 -0.71875 C 2.253906 -0.71875 2.515625 -0.84375 2.765625 -1.09375 C 3.023438 -1.34375 3.25 -1.648438 3.4375 -2.015625 C 3.625 -2.378906 3.757812 -2.726562 3.84375 -3.0625 L 3.90625 -3.390625 C 3.945312 -3.710938 3.875 -3.960938 3.6875 -4.140625 C 3.5 -4.316406 3.265625 -4.40625 2.984375 -4.40625 C 2.160156 -4.40625 1.628906 -3.691406 1.390625 -2.265625 C 1.359375 -2.066406 1.34375 -1.859375 1.34375 -1.640625 C 1.34375 -1.023438 1.554688 -0.71875 1.984375 -0.71875 Z M 1.984375 -0.71875 "/></g></g></g><g fill="#3d3b3a" fill-opacity="1"><g transform="translate(169.156013, 279.375854)"><g><path d="M 2.375 0.15625 C 2.007812 0.15625 1.695312 0.0195312 1.4375 -0.25 C 1.1875 -0.53125 1.0625 -0.863281 1.0625 -1.25 C 1.0625 -1.476562 1.109375 -1.710938 1.203125 -1.953125 C 1.304688 -2.191406 1.457031 -2.5 1.65625 -2.875 C 1.832031 -3.21875 1.945312 -3.441406 2 -3.546875 C 2.0625 -3.679688 2.09375 -3.769531 2.09375 -3.8125 C 2.09375 -3.875 2.050781 -3.90625 1.96875 -3.90625 L 1.359375 -3.90625 C 1.066406 -3.90625 0.851562 -3.859375 0.71875 -3.765625 C 0.582031 -3.679688 0.484375 -3.546875 0.421875 -3.359375 C 0.398438 -3.328125 0.375 -3.3125 0.34375 -3.3125 C 0.3125 -3.3125 0.285156 -3.316406 0.265625 -3.328125 C 0.253906 -3.347656 0.253906 -3.367188 0.265625 -3.390625 C 0.398438 -3.785156 0.519531 -4.082031 0.625 -4.28125 C 0.726562 -4.488281 0.851562 -4.640625 1 -4.734375 C 1.144531 -4.828125 1.335938 -4.875 1.578125 -4.875 L 2.75 -4.875 C 2.84375 -4.875 2.890625 -4.851562 2.890625 -4.8125 C 2.890625 -4.789062 2.878906 -4.757812 2.859375 -4.71875 C 2.679688 -4.300781 2.519531 -3.878906 2.375 -3.453125 C 2.226562 -3.023438 2.132812 -2.664062 2.09375 -2.375 C 2.070312 -2.28125 2.0625 -2.15625 2.0625 -2 C 2.0625 -1.632812 2.144531 -1.34375 2.3125 -1.125 C 2.488281 -0.914062 2.71875 -0.8125 3 -0.8125 C 3.238281 -0.8125 3.46875 -0.878906 3.6875 -1.015625 C 3.914062 -1.160156 4.113281 -1.359375 4.28125 -1.609375 C 4.445312 -1.867188 4.550781 -2.164062 4.59375 -2.5 C 4.601562 -2.5625 4.609375 -2.644531 4.609375 -2.75 C 4.609375 -2.957031 4.570312 -3.128906 4.5 -3.265625 C 4.4375 -3.398438 4.328125 -3.550781 4.171875 -3.71875 C 4.066406 -3.84375 3.984375 -3.953125 3.921875 -4.046875 C 3.867188 -4.140625 3.84375 -4.242188 3.84375 -4.359375 C 3.84375 -4.566406 3.90625 -4.722656 4.03125 -4.828125 C 4.164062 -4.929688 4.335938 -4.984375 4.546875 -4.984375 C 4.765625 -4.984375 4.929688 -4.90625 5.046875 -4.75 C 5.160156 -4.601562 5.21875 -4.335938 5.21875 -3.953125 C 5.21875 -3.722656 5.207031 -3.535156 5.1875 -3.390625 C 5.132812 -2.773438 4.957031 -2.191406 4.65625 -1.640625 C 4.363281 -1.085938 4.007812 -0.648438 3.59375 -0.328125 C 3.1875 -0.00390625 2.78125 0.15625 2.375 0.15625 Z M 2.375 0.15625 "/></g></g></g><g fill="#3d3b3a" fill-opacity="1"><g transform="translate(178.561487, 279.375854)"><g><path d="M 1.984375 0.171875 C 1.429688 0.171875 1.007812 -0.00390625 0.71875 -0.359375 C 0.4375 -0.710938 0.296875 -1.175781 0.296875 -1.75 C 0.296875 -2 0.316406 -2.222656 0.359375 -2.421875 C 0.441406 -2.929688 0.617188 -3.378906 0.890625 -3.765625 C 1.171875 -4.160156 1.503906 -4.46875 1.890625 -4.6875 C 2.273438 -4.90625 2.6875 -5.015625 3.125 -5.015625 C 3.6875 -5.015625 4.117188 -4.84375 4.421875 -4.5 C 4.722656 -4.164062 4.875 -3.710938 4.875 -3.140625 C 4.875 -2.921875 4.847656 -2.679688 4.796875 -2.421875 C 4.679688 -1.867188 4.476562 -1.394531 4.1875 -1 C 3.90625 -0.613281 3.566406 -0.320312 3.171875 -0.125 C 2.785156 0.0703125 2.390625 0.171875 1.984375 0.171875 Z M 2.421875 -0.140625 C 2.679688 -0.140625 2.910156 -0.289062 3.109375 -0.59375 C 3.304688 -0.90625 3.453125 -1.332031 3.546875 -1.875 C 3.609375 -2.195312 3.640625 -2.53125 3.640625 -2.875 C 3.640625 -3.414062 3.554688 -3.859375 3.390625 -4.203125 C 3.222656 -4.546875 3 -4.71875 2.71875 -4.71875 C 2.46875 -4.71875 2.242188 -4.570312 2.046875 -4.28125 C 1.847656 -3.988281 1.695312 -3.550781 1.59375 -2.96875 C 1.539062 -2.644531 1.515625 -2.3125 1.515625 -1.96875 C 1.515625 -1.425781 1.59375 -0.984375 1.75 -0.640625 C 1.90625 -0.304688 2.128906 -0.140625 2.421875 -0.140625 Z M 2.421875 -0.140625 "/></g></g></g><g fill="#3d3b3a" fill-opacity="1"><g transform="translate(187.464191, 279.375854)"><g><path d="M 2.015625 0.15625 C 1.421875 0.15625 0.984375 -0.03125 0.703125 -0.40625 C 0.429688 -0.789062 0.296875 -1.269531 0.296875 -1.84375 C 0.296875 -2.050781 0.316406 -2.285156 0.359375 -2.546875 C 0.441406 -3.023438 0.632812 -3.453125 0.9375 -3.828125 C 1.238281 -4.210938 1.585938 -4.503906 1.984375 -4.703125 C 2.390625 -4.910156 2.789062 -5.015625 3.1875 -5.015625 C 3.488281 -5.015625 3.757812 -4.945312 4 -4.8125 C 4.238281 -4.675781 4.359375 -4.484375 4.359375 -4.234375 C 4.359375 -4.046875 4.300781 -3.894531 4.1875 -3.78125 C 4.082031 -3.664062 3.925781 -3.609375 3.71875 -3.609375 C 3.519531 -3.609375 3.375 -3.660156 3.28125 -3.765625 C 3.1875 -3.867188 3.125 -4.003906 3.09375 -4.171875 C 3.050781 -4.335938 3 -4.460938 2.9375 -4.546875 C 2.875 -4.628906 2.769531 -4.671875 2.625 -4.671875 C 2.375 -4.671875 2.148438 -4.515625 1.953125 -4.203125 C 1.765625 -3.898438 1.628906 -3.492188 1.546875 -2.984375 C 1.492188 -2.703125 1.46875 -2.4375 1.46875 -2.1875 C 1.46875 -1.65625 1.578125 -1.234375 1.796875 -0.921875 C 2.015625 -0.609375 2.34375 -0.453125 2.78125 -0.453125 C 2.945312 -0.453125 3.140625 -0.488281 3.359375 -0.5625 C 3.578125 -0.644531 3.753906 -0.738281 3.890625 -0.84375 L 3.90625 -0.84375 C 3.925781 -0.84375 3.945312 -0.828125 3.96875 -0.796875 C 4 -0.773438 4.003906 -0.753906 3.984375 -0.734375 C 3.679688 -0.441406 3.359375 -0.21875 3.015625 -0.0625 C 2.671875 0.0820312 2.335938 0.15625 2.015625 0.15625 Z M 2.015625 0.15625 "/></g></g></g><g fill="#3d3b3a" fill-opacity="1"><g transform="translate(195.600177, 279.375854)"><g><path d="M 5.21875 -0.96875 C 5.226562 -0.976562 5.238281 -0.984375 5.25 -0.984375 C 5.28125 -0.984375 5.300781 -0.96875 5.3125 -0.9375 C 5.332031 -0.90625 5.335938 -0.882812 5.328125 -0.875 C 4.785156 -0.21875 4.3125 0.109375 3.90625 0.109375 C 3.6875 0.109375 3.523438 0.0507812 3.421875 -0.0625 C 3.328125 -0.1875 3.28125 -0.378906 3.28125 -0.640625 C 3.28125 -0.785156 3.296875 -0.945312 3.328125 -1.125 L 3.46875 -1.96875 C 3.15625 -1.300781 2.773438 -0.78125 2.328125 -0.40625 C 1.890625 -0.03125 1.460938 0.15625 1.046875 0.15625 C 0.785156 0.15625 0.578125 0.078125 0.421875 -0.078125 C 0.273438 -0.234375 0.203125 -0.472656 0.203125 -0.796875 C 0.203125 -1.359375 0.390625 -1.972656 0.765625 -2.640625 C 1.140625 -3.304688 1.597656 -3.867188 2.140625 -4.328125 C 2.691406 -4.785156 3.210938 -5.015625 3.703125 -5.015625 C 3.847656 -5.015625 4.003906 -4.988281 4.171875 -4.9375 C 4.335938 -4.882812 4.476562 -4.800781 4.59375 -4.6875 C 4.75 -4.8125 4.878906 -4.957031 4.984375 -5.125 C 4.992188 -5.132812 5.007812 -5.140625 5.03125 -5.140625 C 5.050781 -5.140625 5.070312 -5.128906 5.09375 -5.109375 C 5.125 -5.097656 5.132812 -5.085938 5.125 -5.078125 L 4.40625 -1.125 C 4.375 -1.007812 4.359375 -0.910156 4.359375 -0.828125 C 4.359375 -0.628906 4.421875 -0.53125 4.546875 -0.53125 C 4.703125 -0.53125 4.925781 -0.675781 5.21875 -0.96875 Z M 1.84375 -0.75 C 2.09375 -0.75 2.347656 -0.878906 2.609375 -1.140625 C 2.878906 -1.410156 3.113281 -1.734375 3.3125 -2.109375 C 3.507812 -2.492188 3.640625 -2.851562 3.703125 -3.1875 C 3.722656 -3.320312 3.734375 -3.445312 3.734375 -3.5625 C 3.734375 -3.832031 3.671875 -4.039062 3.546875 -4.1875 C 3.429688 -4.332031 3.265625 -4.40625 3.046875 -4.40625 C 2.660156 -4.40625 2.316406 -4.195312 2.015625 -3.78125 C 1.722656 -3.363281 1.515625 -2.820312 1.390625 -2.15625 C 1.347656 -1.894531 1.328125 -1.695312 1.328125 -1.5625 C 1.328125 -1.28125 1.375 -1.070312 1.46875 -0.9375 C 1.5625 -0.8125 1.6875 -0.75 1.84375 -0.75 Z M 1.84375 -0.75 "/></g></g></g><g fill="#3d3b3a" fill-opacity="1"><g transform="translate(204.955378, 279.375854)"><g><path d="M 2.015625 0.15625 C 1.421875 0.15625 0.984375 -0.03125 0.703125 -0.40625 C 0.429688 -0.789062 0.296875 -1.269531 0.296875 -1.84375 C 0.296875 -2.050781 0.316406 -2.285156 0.359375 -2.546875 C 0.441406 -3.023438 0.632812 -3.453125 0.9375 -3.828125 C 1.238281 -4.210938 1.585938 -4.503906 1.984375 -4.703125 C 2.390625 -4.910156 2.789062 -5.015625 3.1875 -5.015625 C 3.488281 -5.015625 3.757812 -4.945312 4 -4.8125 C 4.238281 -4.675781 4.359375 -4.484375 4.359375 -4.234375 C 4.359375 -4.046875 4.300781 -3.894531 4.1875 -3.78125 C 4.082031 -3.664062 3.925781 -3.609375 3.71875 -3.609375 C 3.519531 -3.609375 3.375 -3.660156 3.28125 -3.765625 C 3.1875 -3.867188 3.125 -4.003906 3.09375 -4.171875 C 3.050781 -4.335938 3 -4.460938 2.9375 -4.546875 C 2.875 -4.628906 2.769531 -4.671875 2.625 -4.671875 C 2.375 -4.671875 2.148438 -4.515625 1.953125 -4.203125 C 1.765625 -3.898438 1.628906 -3.492188 1.546875 -2.984375 C 1.492188 -2.703125 1.46875 -2.4375 1.46875 -2.1875 C 1.46875 -1.65625 1.578125 -1.234375 1.796875 -0.921875 C 2.015625 -0.609375 2.34375 -0.453125 2.78125 -0.453125 C 2.945312 -0.453125 3.140625 -0.488281 3.359375 -0.5625 C 3.578125 -0.644531 3.753906 -0.738281 3.890625 -0.84375 L 3.90625 -0.84375 C 3.925781 -0.84375 3.945312 -0.828125 3.96875 -0.796875 C 4 -0.773438 4.003906 -0.753906 3.984375 -0.734375 C 3.679688 -0.441406 3.359375 -0.21875 3.015625 -0.0625 C 2.671875 0.0820312 2.335938 0.15625 2.015625 0.15625 Z M 2.015625 0.15625 "/></g></g></g><g fill="#3d3b3a" fill-opacity="1"><g transform="translate(213.091364, 279.375854)"><g><path d="M 2.171875 -6.28125 C 1.953125 -6.28125 1.773438 -6.34375 1.640625 -6.46875 C 1.515625 -6.601562 1.453125 -6.78125 1.453125 -7 C 1.453125 -7.207031 1.515625 -7.375 1.640625 -7.5 C 1.773438 -7.625 1.953125 -7.6875 2.171875 -7.6875 C 2.390625 -7.6875 2.5625 -7.625 2.6875 -7.5 C 2.8125 -7.375 2.875 -7.207031 2.875 -7 C 2.875 -6.769531 2.8125 -6.59375 2.6875 -6.46875 C 2.5625 -6.34375 2.390625 -6.28125 2.171875 -6.28125 Z M 1.328125 0.109375 C 0.929688 0.109375 0.734375 -0.125 0.734375 -0.59375 C 0.734375 -0.71875 0.753906 -0.894531 0.796875 -1.125 L 1.3125 -3.734375 C 1.332031 -3.847656 1.34375 -3.945312 1.34375 -4.03125 C 1.34375 -4.132812 1.320312 -4.210938 1.28125 -4.265625 C 1.238281 -4.328125 1.1875 -4.359375 1.125 -4.359375 C 0.945312 -4.359375 0.707031 -4.1875 0.40625 -3.84375 C 0.394531 -3.84375 0.378906 -3.84375 0.359375 -3.84375 C 0.328125 -3.84375 0.300781 -3.851562 0.28125 -3.875 C 0.269531 -3.90625 0.273438 -3.9375 0.296875 -3.96875 C 0.585938 -4.3125 0.851562 -4.5625 1.09375 -4.71875 C 1.34375 -4.882812 1.585938 -4.96875 1.828125 -4.96875 C 2.222656 -4.96875 2.421875 -4.75 2.421875 -4.3125 C 2.421875 -4.164062 2.40625 -4.023438 2.375 -3.890625 L 1.84375 -1.125 C 1.832031 -1.039062 1.828125 -0.941406 1.828125 -0.828125 C 1.828125 -0.628906 1.890625 -0.53125 2.015625 -0.53125 C 2.097656 -0.53125 2.191406 -0.566406 2.296875 -0.640625 C 2.398438 -0.710938 2.523438 -0.820312 2.671875 -0.96875 C 2.691406 -0.988281 2.710938 -1 2.734375 -1 C 2.753906 -1 2.769531 -0.984375 2.78125 -0.953125 C 2.800781 -0.921875 2.800781 -0.894531 2.78125 -0.875 C 2.5 -0.53125 2.242188 -0.28125 2.015625 -0.125 C 1.796875 0.03125 1.566406 0.109375 1.328125 0.109375 Z M 1.328125 0.109375 "/></g></g></g><g fill="#3d3b3a" fill-opacity="1"><g transform="translate(219.970422, 279.375854)"><g><path d="M 5.21875 -0.96875 C 5.226562 -0.976562 5.238281 -0.984375 5.25 -0.984375 C 5.28125 -0.984375 5.300781 -0.96875 5.3125 -0.9375 C 5.332031 -0.90625 5.335938 -0.882812 5.328125 -0.875 C 4.785156 -0.21875 4.3125 0.109375 3.90625 0.109375 C 3.6875 0.109375 3.523438 0.0507812 3.421875 -0.0625 C 3.328125 -0.1875 3.28125 -0.378906 3.28125 -0.640625 C 3.28125 -0.785156 3.296875 -0.945312 3.328125 -1.125 L 3.46875 -1.96875 C 3.15625 -1.300781 2.773438 -0.78125 2.328125 -0.40625 C 1.890625 -0.03125 1.460938 0.15625 1.046875 0.15625 C 0.785156 0.15625 0.578125 0.078125 0.421875 -0.078125 C 0.273438 -0.234375 0.203125 -0.472656 0.203125 -0.796875 C 0.203125 -1.359375 0.390625 -1.972656 0.765625 -2.640625 C 1.140625 -3.304688 1.597656 -3.867188 2.140625 -4.328125 C 2.691406 -4.785156 3.210938 -5.015625 3.703125 -5.015625 C 3.847656 -5.015625 4.003906 -4.988281 4.171875 -4.9375 C 4.335938 -4.882812 4.476562 -4.800781 4.59375 -4.6875 C 4.75 -4.8125 4.878906 -4.957031 4.984375 -5.125 C 4.992188 -5.132812 5.007812 -5.140625 5.03125 -5.140625 C 5.050781 -5.140625 5.070312 -5.128906 5.09375 -5.109375 C 5.125 -5.097656 5.132812 -5.085938 5.125 -5.078125 L 4.40625 -1.125 C 4.375 -1.007812 4.359375 -0.910156 4.359375 -0.828125 C 4.359375 -0.628906 4.421875 -0.53125 4.546875 -0.53125 C 4.703125 -0.53125 4.925781 -0.675781 5.21875 -0.96875 Z M 1.84375 -0.75 C 2.09375 -0.75 2.347656 -0.878906 2.609375 -1.140625 C 2.878906 -1.410156 3.113281 -1.734375 3.3125 -2.109375 C 3.507812 -2.492188 3.640625 -2.851562 3.703125 -3.1875 C 3.722656 -3.320312 3.734375 -3.445312 3.734375 -3.5625 C 3.734375 -3.832031 3.671875 -4.039062 3.546875 -4.1875 C 3.429688 -4.332031 3.265625 -4.40625 3.046875 -4.40625 C 2.660156 -4.40625 2.316406 -4.195312 2.015625 -3.78125 C 1.722656 -3.363281 1.515625 -2.820312 1.390625 -2.15625 C 1.347656 -1.894531 1.328125 -1.695312 1.328125 -1.5625 C 1.328125 -1.28125 1.375 -1.070312 1.46875 -0.9375 C 1.5625 -0.8125 1.6875 -0.75 1.84375 -0.75 Z M 1.84375 -0.75 "/></g></g></g></svg>