<svg xmlns="http://www.w3.org/2000/svg" xmlns:xlink="http://www.w3.org/1999/xlink" width="500" zoomAndPan="magnify" viewBox="0 0 375 374.999991" height="500" preserveAspectRatio="xMidYMid meet" version="1.0"><defs><g/><clipPath id="cf12800c6c"><path d="M 337 17 L 375 17 L 375 71 L 337 71 Z M 337 17 " clip-rule="nonzero"/></clipPath><clipPath id="2ccb5292d5"><path d="M 364.785156 17.5625 L 376.859375 24.851562 L 349.5625 70.085938 L 337.484375 62.796875 Z M 364.785156 17.5625 " clip-rule="nonzero"/></clipPath><clipPath id="5865e50a95"><path d="M 364.785156 17.5625 L 376.859375 24.851562 L 349.574219 70.066406 L 337.496094 62.777344 Z M 364.785156 17.5625 " clip-rule="nonzero"/></clipPath><clipPath id="2308470ec6"><path d="M 324 10 L 351 10 L 351 38 L 324 38 Z M 324 10 " clip-rule="nonzero"/></clipPath><clipPath id="10ebc84dc1"><path d="M 334.328125 10.808594 L 350.78125 20.738281 L 340.65625 37.511719 L 324.203125 27.582031 Z M 334.328125 10.808594 " clip-rule="nonzero"/></clipPath><clipPath id="6e3a05414f"><path d="M 334.328125 10.808594 L 350.78125 20.738281 L 340.664062 37.503906 L 324.210938 27.570312 Z M 334.328125 10.808594 " clip-rule="nonzero"/></clipPath><clipPath id="a8d94a5015"><path d="M 324 51 L 350 51 L 350 77 L 324 77 Z M 324 51 " clip-rule="nonzero"/></clipPath><clipPath id="f3c7e9bccd"><path d="M 333.25 51.636719 L 349.746094 61.589844 L 340.707031 76.566406 L 324.210938 66.609375 Z M 333.25 51.636719 " clip-rule="nonzero"/></clipPath><clipPath id="c3447e5726"><path d="M 333.25 51.636719 L 349.703125 61.566406 L 340.664062 76.542969 L 324.210938 66.609375 Z M 333.25 51.636719 " clip-rule="nonzero"/></clipPath></defs><g fill="#3d3b3a" fill-opacity="1"><g transform="translate(146.407132, 157.726377)"><g><path d="M 14.953125 -6.828125 C 14.953125 -5.117188 15.191406 -3.875 15.671875 -3.09375 C 16.148438 -2.3125 17.070312 -1.757812 18.4375 -1.4375 C 19.800781 -1.125 21.984375 -0.96875 24.984375 -0.96875 C 25.148438 -0.96875 25.234375 -0.804688 25.234375 -0.484375 C 25.234375 -0.160156 25.148438 0 24.984375 0 C 22.796875 0 21.082031 -0.0234375 19.84375 -0.078125 L 12.859375 -0.15625 L 7.546875 -0.078125 C 6.585938 -0.0234375 5.25 0 3.53125 0 C 3.425781 0 3.375 -0.160156 3.375 -0.484375 C 3.375 -0.804688 3.425781 -0.96875 3.53125 -0.96875 C 5.625 -0.96875 7.164062 -1.097656 8.15625 -1.359375 C 9.144531 -1.628906 9.8125 -2.148438 10.15625 -2.921875 C 10.507812 -3.703125 10.6875 -4.898438 10.6875 -6.515625 L 10.6875 -43.71875 C 10.6875 -45.320312 10.507812 -46.5 10.15625 -47.25 C 9.8125 -48 9.144531 -48.519531 8.15625 -48.8125 C 7.164062 -49.113281 5.625 -49.265625 3.53125 -49.265625 C 3.425781 -49.265625 3.375 -49.421875 3.375 -49.734375 C 3.375 -50.054688 3.425781 -50.21875 3.53125 -50.21875 L 7.46875 -50.140625 C 9.71875 -50.035156 11.488281 -49.984375 12.78125 -49.984375 C 14.0625 -49.984375 15.535156 -50.0625 17.203125 -50.21875 C 21.378906 -50.382812 23.65625 -50.46875 24.03125 -50.46875 C 28.738281 -50.46875 32.566406 -49.378906 35.515625 -47.203125 C 38.460938 -45.035156 39.9375 -41.726562 39.9375 -37.28125 C 39.9375 -33.695312 39.050781 -30.6875 37.28125 -28.25 C 35.519531 -25.8125 33.285156 -24 30.578125 -22.8125 C 27.867188 -21.632812 25.066406 -21.046875 22.171875 -21.046875 C 20.566406 -21.046875 19.253906 -21.179688 18.234375 -21.453125 C 18.078125 -21.453125 18 -21.585938 18 -21.859375 C 18 -22.015625 18.035156 -22.171875 18.109375 -22.328125 C 18.191406 -22.492188 18.289062 -22.550781 18.40625 -22.5 C 19.257812 -22.28125 20.222656 -22.171875 21.296875 -22.171875 C 25.097656 -22.171875 28.320312 -23.320312 30.96875 -25.625 C 33.625 -27.9375 34.953125 -31.285156 34.953125 -35.671875 C 34.953125 -38.515625 34.390625 -40.96875 33.265625 -43.03125 C 32.140625 -45.09375 30.597656 -46.671875 28.640625 -47.765625 C 26.691406 -48.867188 24.535156 -49.421875 22.171875 -49.421875 C 19.984375 -49.421875 18.429688 -49.3125 17.515625 -49.09375 C 16.609375 -48.882812 15.953125 -48.390625 15.546875 -47.609375 C 15.148438 -46.835938 14.953125 -45.488281 14.953125 -43.5625 Z M 14.953125 -6.828125 "/></g></g></g><g fill="#3d3b3a" fill-opacity="1"><g transform="translate(180.355598, 205.790703)"><g><path d="M 36.234375 -39.78125 C 36.234375 -39.613281 36.085938 -39.53125 35.796875 -39.53125 C 35.503906 -39.53125 35.359375 -39.613281 35.359375 -39.78125 C 35.359375 -42.507812 34.632812 -44.675781 33.1875 -46.28125 C 31.738281 -47.894531 29.835938 -48.703125 27.484375 -48.703125 L 21.9375 -48.703125 C 19.957031 -48.703125 18.484375 -48.566406 17.515625 -48.296875 C 16.554688 -48.023438 15.890625 -47.539062 15.515625 -46.84375 C 15.140625 -46.15625 14.953125 -45.085938 14.953125 -43.640625 L 14.953125 -25.953125 L 23.703125 -25.953125 C 26.429688 -25.953125 28.359375 -26.367188 29.484375 -27.203125 C 30.609375 -28.035156 31.171875 -29.46875 31.171875 -31.5 C 31.171875 -31.601562 31.332031 -31.65625 31.65625 -31.65625 C 31.976562 -31.65625 32.140625 -31.601562 32.140625 -31.5 L 32.0625 -25.15625 C 32.0625 -23.601562 32.085938 -22.453125 32.140625 -21.703125 L 32.21875 -17.921875 C 32.21875 -17.816406 32.054688 -17.765625 31.734375 -17.765625 C 31.421875 -17.765625 31.265625 -17.816406 31.265625 -17.921875 C 31.265625 -20.328125 30.6875 -22.007812 29.53125 -22.96875 C 28.375 -23.9375 26.328125 -24.421875 23.390625 -24.421875 L 14.953125 -24.421875 L 14.953125 -6.828125 C 14.953125 -5.117188 15.191406 -3.875 15.671875 -3.09375 C 16.148438 -2.3125 17.070312 -1.757812 18.4375 -1.4375 C 19.800781 -1.125 21.984375 -0.96875 24.984375 -0.96875 C 25.148438 -0.96875 25.234375 -0.804688 25.234375 -0.484375 C 25.234375 -0.160156 25.148438 0 24.984375 0 C 22.796875 0 21.082031 -0.0234375 19.84375 -0.078125 L 12.859375 -0.15625 L 7.546875 -0.078125 C 6.585938 -0.0234375 5.25 0 3.53125 0 C 3.425781 0 3.375 -0.160156 3.375 -0.484375 C 3.375 -0.804688 3.425781 -0.96875 3.53125 -0.96875 C 5.625 -0.96875 7.164062 -1.097656 8.15625 -1.359375 C 9.144531 -1.628906 9.8125 -2.148438 10.15625 -2.921875 C 10.507812 -3.703125 10.6875 -4.898438 10.6875 -6.515625 L 10.6875 -43.71875 C 10.6875 -45.320312 10.507812 -46.5 10.15625 -47.25 C 9.8125 -48 9.144531 -48.519531 8.15625 -48.8125 C 7.164062 -49.113281 5.625 -49.265625 3.53125 -49.265625 C 3.425781 -49.265625 3.375 -49.421875 3.375 -49.734375 C 3.375 -50.054688 3.425781 -50.21875 3.53125 -50.21875 L 35.359375 -50.21875 C 35.835938 -50.21875 36.078125 -49.976562 36.078125 -49.5 Z M 36.234375 -39.78125 "/></g></g></g><g clip-path="url(#cf12800c6c)"><g clip-path="url(#2ccb5292d5)"><g clip-path="url(#5865e50a95)"><path fill="#ffffff" d="M 364.785156 17.5625 L 376.859375 24.851562 L 349.5625 70.085938 L 337.484375 62.796875 Z M 364.785156 17.5625 " fill-opacity="1" fill-rule="nonzero"/></g></g></g><g clip-path="url(#2308470ec6)"><g clip-path="url(#10ebc84dc1)"><g clip-path="url(#6e3a05414f)"><path fill="#ffffff" d="M 334.328125 10.808594 L 350.78125 20.738281 L 340.65625 37.511719 L 324.203125 27.582031 Z M 334.328125 10.808594 " fill-opacity="1" fill-rule="nonzero"/></g></g></g><g clip-path="url(#a8d94a5015)"><g clip-path="url(#f3c7e9bccd)"><g clip-path="url(#c3447e5726)"><path fill="#ffffff" d="M 333.25 51.636719 L 349.6875 61.554688 L 340.648438 76.53125 L 324.210938 66.609375 Z M 333.25 51.636719 " fill-opacity="1" fill-rule="nonzero"/></g></g></g><path stroke-linecap="butt" transform="matrix(0.499403, -0.55955, 0.55955, 0.499403, 157.640941, 179.501868)" fill="none" stroke-linejoin="miter" d="M 0.000134498 0.997605 L 85.074354 1.001097 " stroke="#3d3b3a" stroke-width="2" stroke-opacity="1" stroke-miterlimit="4"/></svg>